<?xml version="1.0" encoding="UTF-8" standalone="no"?>
<svg
  height="36"
  viewBox="0 -960 1440 1440"
  width="36"
  fill="#03e3e3"
  version="1.1"
  id="svg1"
  sodipodi:docname="logo.svg"
  inkscape:version="1.4 (e7c3feb1, 2024-10-09)"
  xmlns:inkscape="http://www.inkscape.org/namespaces/inkscape"
  xmlns:sodipodi="http://sodipodi.sourceforge.net/DTD/sodipodi-0.dtd"
  xmlns="http://www.w3.org/2000/svg"
>
  <defs
    id="defs1"/>
  <sodipodi:namedview
    id="namedview1"
    pagecolor="#ffffff"
    bordercolor="#000000"
    borderopacity="0.25"
    inkscape:showpageshadow="2"
    inkscape:pageopacity="0.0"
    inkscape:pagecheckerboard="0"
    inkscape:deskcolor="#d1d1d1"
    inkscape:zoom="6.3137984"
    inkscape:cx="-4.1179648"
    inkscape:cy="36.111384"
    inkscape:window-width="1728"
    inkscape:window-height="1051"
    inkscape:window-x="0"
    inkscape:window-y="38"
    inkscape:window-maximized="1"
    inkscape:current-layer="svg1"/>
  <circle
    style="font-variation-settings:'opsz' 20;fill:#cccccc;stroke:none;stroke-width:81.0855;stroke-linecap:round;stroke-linejoin:round"
    id="path2"
    cx="720"
    cy="-240"
    r="720"/>
  <path
    d="M 386.66667,209.77777 Q 325.55556,209.77777 282.77777,167 240,124.22223 240,63.11111 V -83.555569 H 386.66667 V -768 L 460,-694.66667 533.33333,-768 606.66667,-694.66667 680,-768 753.33333,-694.66667 826.66667,-768 900,-694.66667 973.3333,-768 1046.6667,-694.66667 1120,-768 V 63.11111 q 0,61.11112 -42.7777,103.88889 -42.7779,42.77777 -103.889,42.77777 z M 973.3333,112 q 20.7779,0 34.8334,-14.05556 14.0556,-14.05556 14.0556,-34.83333 V -621.33333 H 484.44444 V -83.555569 H 924.44441 V 63.11111 q 0,20.77777 14.05559,34.83333 Q 952.5556,112 973.3333,112 Z M 533.33333,-425.77777 v -97.77779 h 293.33334 v 97.77779 z m 0,146.66665 v -97.77776 h 293.33334 v 97.77776 z m 391.11108,-146.66665 q -20.77774,0 -34.83329,-14.05556 -14.05556,-14.05555 -14.05556,-34.83334 0,-20.77777 14.05556,-34.83333 14.05555,-14.05556 34.83329,-14.05556 20.77779,0 34.83329,14.05556 14.0556,14.05556 14.0556,34.83333 0,20.77779 -14.0556,34.83334 -14.0554,14.05556 -34.83329,14.05556 z m 0,146.66665 q -20.77774,0 -34.83329,-14.05555 -14.05556,-14.05556 -14.05556,-34.83333 0,-20.77777 14.05556,-34.83333 14.05555,-14.05555 34.83329,-14.05555 20.77779,0 34.83329,14.05555 14.0556,14.05556 14.0556,34.83333 0,20.77777 -14.0556,34.83333 -14.0554,14.05555 -34.83329,14.05555 z M 386.66667,112 h 440 V 14.222215 H 337.77777 V 63.11111 q 0,20.77777 14.05556,34.83333 Q 365.88888,112 386.66667,112 Z m -48.8889,0 V 14.222215 Z"
    id="path1"
    style="stroke-width:1.22223;fill:#008080"/>
</svg>
